<svg height="512pt" viewBox="0 0 512 512.05442" width="512pt" xmlns="http://www.w3.org/2000/svg"><path d="m503.304688 204.800781c0 14.140625-11.460938 25.601563-25.597657 25.601563-14.140625 0-25.601562-11.460938-25.601562-25.601563 0-14.136719 11.460937-25.597656 25.601562-25.597656 14.136719 0 25.597657 11.460937 25.597657 25.597656zm0 0" fill="#607d8b"/><path d="m477.707031 204.800781c.003907 9.152344-4.875 17.613281-12.800781 22.1875-7.9375-4.570312-12.828125-13.027343-12.828125-22.1875 0-9.15625 4.890625-17.617187 12.828125-22.1875 7.925781 4.578125 12.804688 13.035157 12.800781 22.1875zm0 0" fill="#cfd8dc"/><path d="m435.039062 290.132812c0 117.824219-95.511718 213.335938-213.332031 213.335938-4.265625 0-8.535156-.085938-12.800781-.425781-112.359375-7.097657-199.867188-100.285157-199.890625-212.867188-.023437-112.585937 87.445313-205.808593 199.804687-212.949219 4.265626-.253906 8.535157-.425781 12.886719-.425781 23.730469-.03125 47.296875 3.917969 69.714844 11.691407 1.109375.339843 2.136719.769531 3.160156 1.109374l63.828125-3.070312 25.429688-1.195312 8.363281 76.628906c27.851563 36.917968 42.890625 81.921875 42.835937 128.167968zm0 0" fill="#0377bc"/><path d="m409.441406 290.132812c.03125 112.855469-87.878906 206.191407-200.535156 212.910157-112.359375-7.097657-199.867188-100.285157-199.890625-212.867188-.023437-112.585937 87.445313-205.808593 199.804687-212.949219 20.550782 1.160157 40.820313 5.328126 60.160157 12.375l22.441406-1.109374 66.816406-3.15625.171875 1.195312 8.191406 75.433594c27.851563 36.917968 42.894532 81.921875 42.839844 128.167968zm0 0" fill="#02a9f4"/><path d="m366.773438 254.125c.046874 10.199219-2.667969 20.226562-7.851563 29.011719v.085937c-15.4375 7.777344-29.855469 17.4375-42.921875 28.757813-2.960938.515625-5.957031.773437-8.960938.765625-1.167968.03125-2.339843-.023438-3.5-.167969-31.296874-1.449219-55.996093-27.125-56.234374-58.453125.019531-18.582031 8.933593-36.03125 23.980468-46.933594 2.417969-1.742187 4.953125-3.3125 7.59375-4.695312l47.273438-3.753906c24.125 7.691406 40.535156 30.0625 40.621094 55.382812zm0 0" fill="#cfd8dc"/><path d="m341.171875 262.828125c.070313 10.636719-2.636719 21.105469-7.851563 30.378906v.085938c-10.484374 5.523437-20.449218 11.976562-29.78125 19.285156-31.296874-1.449219-55.996093-27.125-56.234374-58.453125.019531-18.582031 8.933593-36.03125 23.980468-46.933594l29.269532-2.390625c24.550781 8.667969 40.878906 31.988281 40.617187 58.027344zm0 0" fill="#fff"/><path d="m196.105469 254.125c-.132813 15.699219-6.507813 30.699219-17.710938 41.695312-11.207031 10.996094-26.324219 17.085938-42.023437 16.925782-3 .007812-6-.25-8.957032-.765625-13.066406-11.320313-27.484374-20.980469-42.925781-28.757813v-.085937c-5.183593-8.785157-7.894531-18.8125-7.847656-29.011719 0-32.992188 26.742187-59.734375 59.730469-59.734375 32.992187 0 59.734375 26.742187 59.734375 59.734375zm0 0" fill="#fff"/><path d="m144.90625 244.3125c0-9.25-7.640625-16.746094-17.066406-16.746094-9.425782 0-17.066406 7.496094-17.066406 16.746094 0 9.246094 7.640624 16.742188 17.066406 16.742188 9.425781 0 17.066406-7.496094 17.066406-16.742188zm0 0" fill="#ff9801"/><path d="m315.574219 244.3125c0-9.25-7.640625-16.746094-17.066407-16.746094-9.425781 0-17.066406 7.496094-17.066406 16.746094 0 9.246094 7.640625 16.742188 17.066406 16.742188 9.425782 0 17.066407-7.496094 17.066407-16.742188zm0 0" fill="#ff9801"/><path d="m503.304688 281.601562c0 9.425782-7.640626 17.066407-17.066407 17.066407s-17.066406-7.640625-17.066406-17.066407c0-9.425781 7.640625-17.066406 17.066406-17.066406s17.066407 7.640625 17.066407 17.066406zm0 0" fill="#607d8b"/><path d="m503.304688 109.738281c.015624 10.191407-4.027344 19.964844-11.230469 27.167969-7.203125 7.207031-16.980469 11.246094-27.167969 11.234375-4.335938.003906-8.636719-.746094-12.714844-2.21875-4.863281-1.667969-9.335937-4.308594-13.140625-7.765625-2.148437 3.34375-4.699219 6.410156-7.59375 9.128906-9.683593 9.558594-22.75 14.894532-36.355469 14.847656-4.316406.03125-8.621093-.515624-12.796874-1.621093-20.128907-5.046875-35.363282-21.523438-38.828126-41.980469-3.636718 1.171875-7.441406 1.75-11.265624 1.703125-21.207032 0-38.398438-17.191406-38.398438-38.398437 0-21.207032 17.191406-38.398438 38.398438-38.398438 2.203124.019531 4.402343.21875 6.574218.597656 3.148438-6.839844 8.707032-12.277344 15.613282-15.277344 2.785156-1.269531 5.75-2.105468 8.789062-2.472656 7.6875-.988281 15.464844.894532 21.847656 5.289063 6.515625-10.410157 16.675782-18.015625 28.5-21.332031 4.230469-1.132813 8.589844-1.707032 12.972656-1.707032 12.972657-.015625 25.417969 5.128906 34.589844 14.304688 9.175782 9.171875 14.320313 21.617187 14.304688 34.589844-.015625 5.039062-.792969 10.042968-2.304688 14.847656 17.660156 3.777344 30.261719 19.40625 30.207032 37.460937zm0 0" fill="#607d8b"/><path d="m477.707031 109.738281c.039063 16.257813-10.191406 30.761719-25.515625 36.183594-4.132812 1.480469-8.492187 2.230469-12.886718 2.21875-2.640626.019531-5.273438-.265625-7.847657-.855469-6.722656-1.351562-12.945312-4.507812-18.007812-9.128906-7.1875 11.113281-18.316407 19.101562-31.144531 22.355469-20.128907-5.046875-35.363282-21.523438-38.828126-41.980469-3.636718 1.171875-7.441406 1.75-11.265624 1.703125-21.207032 0-38.398438-17.191406-38.398438-38.398437 0-21.207032 17.191406-38.398438 38.398438-38.398438 2.203124.019531 4.402343.21875 6.574218.597656 3.148438-6.839844 8.707032-12.277344 15.613282-15.277344 1.769531.769532 3.453124 1.714844 5.035156 2.816407 1.105468-1.863281 2.359375-3.632813 3.753906-5.289063 7.6875-.988281 15.464844.894532 21.847656 5.289063 6.515625-10.410157 16.675782-18.015625 28.5-21.332031 21.425782 5.632812 36.335938 25.035156 36.265625 47.1875-.015625 5.039062-.792969 10.042968-2.300781 14.847656 17.65625 3.777344 30.257812 19.40625 30.207031 37.460937zm0 0" fill="#cfd8dc"/><path d="m153.441406 244.3125c.128906-10.382812-6.023437-19.816406-15.578125-23.882812-9.554687-4.066407-20.617187-1.957032-28.007812 5.339843s-9.640625 18.332031-5.695313 27.9375c3.941406 9.605469 13.296875 15.878907 23.679688 15.878907 14.042968.070312 25.492187-11.234376 25.601562-25.273438zm-34.136718 0c-.128907-3.480469 1.863281-6.6875 5.039062-8.113281 3.175781-1.421875 6.898438-.773438 9.40625 1.636719 2.507812 2.414062 3.300781 6.109374 2 9.335937-1.300781 3.230469-4.429688 5.34375-7.910156 5.347656-4.621094.082031-8.4375-3.589843-8.535156-8.207031zm0 0"/><path d="m151.058594 322.628906c-.851563-.851562-1.65625-1.644531-2.472656-2.492187 34.6875-6.980469 58.027343-39.660157 53.371093-74.738281-4.65625-35.082032-35.714843-60.542969-71.023437-58.230469-35.3125 2.3125-62.785156 31.605469-62.828125 66.988281.046875 4.445312.539062 8.875 1.46875 13.21875-2.730469-.988281-5.222657-1.808594-7.441407-2.472656-2.945312-.972656-6.183593-.269532-8.460937 1.835937-2.277344 2.101563-3.234375 5.273438-2.5 8.285157.730469 3.011718 3.039063 5.390624 6.027344 6.210937 31.277343 10.492187 59.351562 28.808594 81.554687 53.207031 2.078125 2.328125 5.265625 3.335938 8.304688 2.625 3.039062-.710937 5.449218-3.023437 6.285156-6.03125.832031-3.007812-.042969-6.230468-2.285156-8.40625zm-65.886719-68.472656c-.46875-20.804688 11.707031-39.824219 30.796875-48.113281 19.089844-8.289063 41.296875-4.199219 56.179688 10.351562 14.882812 14.546875 19.480468 36.65625 11.628906 55.929688-7.855469 19.273437-26.59375 31.875-47.40625 31.882812-1.828125-.035156-3.652344-.191406-5.460938-.460937-12.332031-10.453125-25.78125-19.507813-40.105468-27-3.699219-6.953125-5.632813-14.710938-5.632813-22.589844zm0 0"/><path d="m324.105469 244.3125c.132812-10.382812-6.019531-19.816406-15.574219-23.882812-9.554688-4.066407-20.621094-1.957032-28.007812 5.339843-7.390626 7.296875-9.640626 18.332031-5.699219 27.9375 3.945312 9.605469 13.296875 15.878907 23.683593 15.878907 14.039063.070312 25.492188-11.234376 25.597657-25.273438zm-25.597657 8.207031c-4.496093-.171875-8.015624-3.925781-7.902343-8.421875.117187-4.496094 3.824219-8.066406 8.324219-8.007812 4.496093.058594 8.109374 3.722656 8.109374 8.222656-.097656 4.617188-3.914062 8.289062-8.53125 8.207031zm0 0"/><path d="m381.28125 264.902344c-2.21875.664062-4.710938 1.484375-7.441406 2.472656 4.949218-22.875-2.808594-46.640625-20.300782-62.191406l5.359376-.382813c2.265624-.167969 4.371093-1.230469 5.847656-2.957031 1.476562-1.722656 2.207031-3.96875 2.027344-6.234375-.132813-2.277344-1.1875-4.402344-2.921876-5.890625-1.734374-1.484375-3.996093-2.199219-6.269531-1.984375l-110.933593 8.535156c-4.710938.179688-8.386719 4.148438-8.203126 8.859375.179688 4.714844 4.148438 8.386719 8.859376 8.207032h.667968l5.246094-.402344c-9.335938 11.699218-14.429688 26.222656-14.445312 41.191406.253906 32.664062 23.855468 60.464844 56.046874 66.019531-.855468.855469-1.640624 1.625-2.464843 2.484375-2.242188 2.175782-3.117188 5.398438-2.285157 8.40625.832032 3.007813 3.242188 5.320313 6.285157 6.03125 3.039062.710938 6.222656-.296875 8.304687-2.625 16.492188-17.527344 35.820313-32.148437 57.171875-43.25.628907-.210937 1.230469-.496094 1.792969-.851562 7.28125-3.640625 14.851562-6.675782 22.628906-9.078125 4.398438-1.449219 6.835938-6.140625 5.5-10.574219-1.339844-4.429688-5.96875-6.988281-10.433594-5.761719zm-125.441406-10.777344c.070312-18.125 10.011718-34.769531 25.941406-43.417969l43.03125-3.3125c19.933594 6.90625 33.332031 25.636719 33.425781 46.730469.023438 7.878906-1.894531 15.644531-5.578125 22.613281-14.34375 7.507813-27.8125 16.578125-40.160156 27.050781-1.808594.273438-3.632812.429688-5.460938.46875-27.972656.273438-50.886718-22.160156-51.199218-50.132812zm0 0"/><path d="m156.648438 384.070312c-4.574219.691407-7.765626 4.902344-7.191407 9.492188.570313 4.589844 4.695313 7.886719 9.296875 7.4375 43.191406-3.203125 86.195313 8.285156 122.027344 32.605469 2.472656 1.914062 5.792969 2.324219 8.65625 1.066406s4.808594-3.980469 5.070312-7.097656c.265626-3.113281-1.199218-6.125-3.808593-7.84375-39.210938-27.042969-86.585938-39.648438-134.050781-35.660157zm0 0"/><path d="m120.765625 170.539062c.433594-.074218 45.140625-7.457031 69.570313 14.953126 3.476562 3.183593 8.875 2.949218 12.058593-.523438 3.1875-3.472656 2.953125-8.871094-.519531-12.054688-30.660156-28.109374-81.867188-19.542968-84.035156-19.183593-4.566406.882812-7.582032 5.257812-6.785156 9.839843.796874 4.582032 5.117187 7.679688 9.710937 6.96875zm0 0"/><path d="m483.140625 66.5625c.507813-3.023438.765625-6.082031.777344-9.148438.011719-24.15625-15.109375-45.734374-37.820313-53.972656-22.707031-8.238281-48.144531-1.371094-63.625 17.175782-4.839844-2.058594-10.046875-3.132813-15.308594-3.15625-13.21875.042968-25.570312 6.601562-33.015624 17.527343-25.128907-1.207031-46.671876 17.773438-48.636719 42.855469-91.597657-27.472656-190.484375 6.859375-245.347657 85.179688-54.867187 78.320312-53.351562 182.988281 3.753907 259.6875 57.105469 76.699218 156.945312 108.15625 247.707031 78.050781 90.761719-30.109375 152.003906-115.003907 151.949219-210.628907.089843-42.933593-12.402344-84.953124-35.933594-120.863281 12.851563-2.667969 24.484375-9.457031 33.125-19.335937 14.476563 8.765625 32.554687 9.035156 47.289063.710937 14.730468-8.328125 23.824218-23.957031 23.785156-40.878906-.066406-18.84375-11.355469-35.835937-28.699219-43.203125zm-261.433594 428.371094c-81.308593.132812-154.992187-47.84375-187.761719-122.25-32.773437-74.410156-18.425781-161.160156 36.5625-221.050782 54.984376-59.894531 140.195313-81.589843 217.125-55.28125 6.460938 21.359376 27.414063 34.917969 49.546876 32.058594 7.1875 22.554688 26.851562 38.855469 50.347656 41.738282 25.421875 34.832031 39.074218 76.863281 38.980468 119.984374-.132812 113.054688-91.75 204.671876-204.800781 204.800782zm243.199219-355.300782c-5.183594-.019531-10.269531-1.402343-14.753906-4.003906 2.609375-5.46875 4.359375-11.308594 5.195312-17.3125.570313-3.097656-.613281-6.253906-3.074218-8.214844-2.460938-1.960937-5.804688-2.40625-8.695313-1.164062-2.890625 1.246094-4.859375 3.980469-5.125 7.117188-.839844 6.246093-3.074219 12.226562-6.535156 17.492187-9.78125 15.195313-27.894531 22.820313-45.597657 19.199219-17.703124-3.625-31.359374-17.75-34.386718-35.566406-.429688-2.4375-.644532-4.90625-.648438-7.378907-.003906-2.578125.226563-5.148437.699219-7.679687.863281-4.636719-2.191406-9.09375-6.828125-9.960938-4.632812-.863281-9.09375 2.191406-9.957031 6.828125-.652344 3.550781-.980469 7.15625-.980469 10.769531 0 .578126.136719 1.203126.152344 1.792969-.699219.050781-1.382813.152344-2.097656.152344-16.496094 0-29.867188-13.371094-29.867188-29.867187 0-16.496094 13.371094-29.867188 29.867188-29.867188 1.714843.003906 3.429687.152344 5.117187.445312 4.152344.671876 8.105469 2.253907 11.574219 4.632813 3.890625 2.660156 9.199218 1.664063 11.859375-2.226563 2.660156-3.890624 1.664062-9.203124-2.226563-11.863281-1.804687-1.210937-3.695312-2.292969-5.65625-3.234375 7.785156-6.488281 18.953125-6.957031 27.253906-1.140625 2.925782 2.050781 5.324219 4.765625 7.007813 7.917969.910156 2.335938 2.820313 4.144531 5.203125 4.921875.363281.097656.730469.171875 1.101562.222656.523438.160157 1.058594.269531 1.605469.324219h.210938c.074219-.011719.148437-.03125.222656-.050781 1.105469-.167969 2.195313-.40625 3.269531-.714844.085938-.019531.171875-.042969.253906-.070313.425782-.265624.820313-.570312 1.1875-.914062.40625-.25.792969-.535156 1.152344-.851562.589844-.644532 1.078125-1.378907 1.441406-2.175782.070313-.152344.179688-.273437.238282-.425781.980468-2.25.929687-4.816406-.144532-7.023437-1.675781-3.351563-3.820312-6.449219-6.367187-9.199219 7.585937-8.570313 18.484375-13.476563 29.929687-13.476563 11.695313-.109375 22.851563 4.910156 30.53125 13.734375 7.675782 8.820313 11.101563 20.566407 9.378907 32.132813-2.503907-.09375-5.007813.015625-7.492188.324218-4.683593.609376-7.988281 4.898438-7.378906 9.578126.609375 4.683593 4.898437 7.988281 9.578125 7.378906 3.386719-.464844 6.828125-.316406 10.164062.433594 14.839844 3.3125 24.824219 17.246093 23.191407 32.363281-1.636719 15.117187-14.367188 26.59375-29.574219 26.65625zm0 0"/><path d="m477.707031 170.667969c-18.851562 0-34.132812 15.28125-34.132812 34.132812 0 18.851563 15.28125 34.132813 34.132812 34.132813 18.851563 0 34.132813-15.28125 34.132813-34.132813 0-18.851562-15.28125-34.132812-34.132813-34.132812zm0 51.199219c-9.425781 0-17.066406-7.640626-17.066406-17.066407s7.640625-17.066406 17.066406-17.066406 17.066407 7.640625 17.066407 17.066406-7.640626 17.066407-17.066407 17.066407zm0 0"/><path d="m486.238281 256c-14.136719 0-25.597656 11.464844-25.597656 25.601562 0 14.136719 11.460937 25.601563 25.597656 25.601563 14.140625 0 25.601563-11.464844 25.601563-25.601563 0-14.136718-11.460938-25.601562-25.601563-25.601562zm0 34.132812c-4.710937 0-8.53125-3.820312-8.53125-8.53125 0-4.714843 3.820313-8.535156 8.53125-8.535156 4.714844 0 8.535157 3.820313 8.535157 8.535156 0 4.710938-3.820313 8.53125-8.535157 8.53125zm0 0"/></svg>