<svg height="512" viewBox="0 0 64 64" width="512" xmlns="http://www.w3.org/2000/svg"><g id="Layer_7" data-name="Layer 7"><g fill="#fddfb1"><rect height="34" rx="13" width="26" x="19" y="2"/><path d="m42 40h-5v-5a13 13 0 0 1 -10 0v5h-5a11 11 0 0 0 -11 11v12h42v-12a11 11 0 0 0 -11-11z"/><path d="m45.5 19h-.5v4a12.9 12.9 0 0 1 -.36 3h.86a3.5 3.5 0 0 0 0-7z"/><path d="m19 23v-4h-.5a3.5 3.5 0 0 0 0 7h.86a12.9 12.9 0 0 1 -.36-3z"/></g><path d="m20 10 .05.05a16.9 16.9 0 0 0 11.95 4.95 16.9 16.9 0 0 0 12-4.95v-.05a13 13 0 0 0 -24 0z" fill="#c1c8d1"/><path d="m42 40h-1a25.1 25.1 0 0 1 -14.88 11.9l-7.12 2.1v9h34v-12a11 11 0 0 0 -11-11z" fill="#f5b95b"/><path d="m42 39h-4v-3.37a14.07 14.07 0 0 0 7.41-8.63h.09a4.49 4.49 0 0 0 .5-8.95v-3.05a14 14 0 0 0 -28 0v3.05a4.49 4.49 0 0 0 .5 9h.09a14.07 14.07 0 0 0 7.41 8.58v3.37h-4a12 12 0 0 0 -12 12v12h2v-12a10 10 0 0 1 10-10h5a1 1 0 0 0 1-1v-3.59a13.85 13.85 0 0 0 8 0v3.59a1 1 0 0 0 1 1h2.2a24 24 0 0 1 -13.36 10l-5.84 1.66v-1.66h-2v12h2v-4.26l7.28-2.18a31.28 31.28 0 0 0 18.45-14.83 10 10 0 0 1 6.27 9.27v12h2v-12a12 12 0 0 0 -12-12zm6-16.5a2.51 2.51 0 0 1 -2.15 2.5 14.27 14.27 0 0 0 .15-2v-2.95a2.5 2.5 0 0 1 2 2.45zm-16-19.5a12 12 0 0 1 10.78 6.76 15.77 15.77 0 0 1 -10.78 4.24 15.75 15.75 0 0 1 -10.78-4.24 12 12 0 0 1 10.78-6.76zm-16 19.5a2.5 2.5 0 0 1 2-2.45v2.95a14.27 14.27 0 0 0 .15 2 2.51 2.51 0 0 1 -2.15-2.5zm4 .5v-8a11.89 11.89 0 0 1 .46-3.23 17.75 17.75 0 0 0 11.54 4.23 17.75 17.75 0 0 0 11.54-4.24 12 12 0 0 1 .46 3.24v8a12 12 0 0 1 -24 0zm6.71 31.64-6.71 2v-1.89l6.41-1.89a25.92 25.92 0 0 0 15.16-11.86h.43a10.08 10.08 0 0 1 1.75.16 29.25 29.25 0 0 1 -17.04 13.48z"/><path d="m44 51h2v12h-2z"/><path d="m28.27 58.52-1.59.53.64 1.9 1.59-.53a42.28 42.28 0 0 0 13.73-7.65l-1.28-1.54a40.25 40.25 0 0 1 -13.09 7.29z"/><path d="m32 31a4 4 0 0 1 -4-4h-2a6 6 0 0 0 12 0h-2a4 4 0 0 1 -4 4z"/></g></svg>