<svg id="Flat" height="512" viewBox="0 0 512 512" width="512" xmlns="http://www.w3.org/2000/svg"><g><g><path d="m64 488v-114.775a30 30 0 0 1 20.015-28.289l115.985-40.936h112l115.985 40.936a30 30 0 0 1 20.015 28.289v114.775z" fill="#f2f2f2"/><path d="m312 304-56 72-56-72 16-56h80z" fill="#ffd4cf"/><path d="m296 248h-80l-5.656 19.8 13.695 11.639a36.042 36.042 0 0 0 23.312 8.561h17.249a36.027 36.027 0 0 0 23.428-8.666l13.594-11.652z" fill="#fbb8b0"/><path d="m200 304 56 32-72 32z" fill="#fcfcfc"/><path d="m312 304-56 32 72 32z" fill="#fcfcfc"/><path d="m224 351 16 33h32l16-33-32-15z" fill="#2471d6"/><path d="m224 488 16-104h32l16 104z" fill="#2471d6"/><path d="m120 424h16v64h-16z" fill="#e6e6e6"/><path d="m376 424h16v64h-16z" fill="#e6e6e6"/><path d="m350 136h-22v-40h-144v40h-22a10 10 0 0 0 -10 10v28a10 10 0 0 0 10 10h22v31.159a20 20 0 0 0 7.048 15.239l43.352 36.842a20 20 0 0 0 12.951 4.76h17.249a20 20 0 0 0 13.015-4.815l43.4-37.2a20 20 0 0 0 6.985-15.185v-30.8h22a10 10 0 0 0 10-10v-28a10 10 0 0 0 -10-10z" fill="#ffd4cf"/><g fill="#ae7069"><path d="m280 144h16v24h-16z"/><path d="m232 168h-16v-24h8 8z"/><path d="m224 208h64a0 0 0 0 1 0 0 24 24 0 0 1 -24 24h-16a24 24 0 0 1 -24-24 0 0 0 0 1 0 0z"/></g></g><path d="m326 104h-62l-8-64h40a40 40 0 0 1 40 40v14a10 10 0 0 1 -10 10z" fill="#244ed6"/><path d="m152 24h68a60 60 0 0 1 60 60v20a0 0 0 0 1 0 0h-68a60 60 0 0 1 -60-60v-20a0 0 0 0 1 0 0z" fill="#5a80ed"/><path d="m136 56h64a48 48 0 0 1 48 48 0 0 0 0 1 0 0h-64a48 48 0 0 1 -48-48 0 0 0 0 1 0 0z" fill="#244ed6" transform="matrix(-1 0 0 -1 384 160)"/></g></svg>