<?xml version="1.0" encoding="iso-8859-1"?>
<!-- Generator: Adobe Illustrator 21.0.0, SVG Export Plug-In . SVG Version: 6.00 Build 0)  -->
<svg xmlns="http://www.w3.org/2000/svg" xmlns:xlink="http://www.w3.org/1999/xlink" version="1.1" id="Capa_1" x="0px" y="0px" viewBox="0 0 512 512" style="enable-background:new 0 0 512 512;" xml:space="preserve" width="512" height="512">
<g>
	<g>
		<g>
			<g>
				<circle style="fill:#FF468C;" cx="256" cy="256" r="256"/>
			</g>
		</g>
	</g>
	<path style="fill:#D72878;" d="M508.881,296.008L313.85,99.211l6.984,86.914l-89.547-89.577L153.81,221.976l20.782,276.8   C200.166,507.348,227.539,512,256,512C383.773,512,489.673,418.388,508.881,296.008z"/>
	<g>
		<path style="fill:#FFBEAA;" d="M229.927,220.337c-0.091-0.439-0.192-0.873-0.304-1.302c-2.792-10.718-11.993-18.244-22.584-19.279    c-0.847-0.083-1.703-0.124-2.566-0.122c-1.725,0.004-3.475,0.181-5.23,0.544h0c-1.755,0.363-3.432,0.896-5.016,1.577    c-0.792,0.34-1.562,0.718-2.307,1.131c-9.309,5.155-14.767,15.715-13.073,26.661c0.068,0.438,0.147,0.876,0.238,1.315    l14.125,68.228c0.48,2.318-0.291,4.719-2.031,6.324c-3.855,3.557-10.116,1.546-11.179-3.59l-12.244-59.146    c-5.051-24.398-0.383-52.369,37.952-55.288c0.562-0.043,32.165-54.623,32.165-54.623c7.816-11.896,5.095-28.081-6.583-36.22    c-12.116-8.444-28.729-5.184-36.785,7.078l-68.986,87.555c-7.192,9.128-10.619,20.661-9.578,32.236l22.689,155.812l-55.34,65.725    c26.061,23.834,57.067,42.347,91.303,53.823l66.245-143.372c7.984-14.606,10.515-31.576,7.141-47.877L229.927,220.337z"/>
	</g>
	<g>
		<path style="fill:#FAA68E;" d="M237.29,255.905h-53.022l8.94,43.185c0.48,2.318-0.291,4.719-2.031,6.324    c-3.855,3.557-10.116,1.546-11.179-3.59l-9.506-45.92H120.67l17.958,123.323l-55.34,65.725    c26.061,23.834,57.067,42.347,91.303,53.823l66.245-143.372c7.984-14.606,10.515-31.576,7.141-47.877L237.29,255.905z"/>
	</g>
	<g>
		<path style="fill:#FFBEAA;" d="M282.073,220.337c0.091-0.439,0.192-0.873,0.304-1.302c2.792-10.718,11.993-18.244,22.584-19.279    c0.847-0.083,1.703-0.124,2.566-0.122c1.725,0.004,3.475,0.181,5.23,0.544h0c1.755,0.363,3.432,0.896,5.016,1.577    c0.792,0.34,1.562,0.718,2.307,1.131c9.309,5.155,14.767,15.715,13.073,26.661c-0.068,0.438-0.147,0.876-0.238,1.315    l-14.125,68.228c-0.48,2.318,0.291,4.719,2.031,6.324c3.855,3.557,10.116,1.546,11.179-3.59l12.244-59.146    c5.051-24.398,0.383-52.369-37.952-55.288c-0.562-0.043-32.165-54.623-32.165-54.623c-7.816-11.896-5.095-28.081,6.583-36.22    c12.116-8.444,28.729-5.184,36.785,7.078l68.986,87.555c7.192,9.128,10.619,20.661,9.578,32.236l-22.689,155.812l55.34,65.725    c-26.061,23.834-57.067,42.347-91.303,53.823l-66.245-143.372c-7.984-14.606-10.515-31.576-7.141-47.877L282.073,220.337z"/>
	</g>
	<g>
		<path style="fill:#FAA68E;" d="M391.33,255.905h-49.822l-9.506,45.92c-1.063,5.136-7.325,7.146-11.179,3.59    c-1.74-1.606-2.511-4.006-2.031-6.324l8.94-43.185H274.71l-10.687,51.623c-3.375,16.301-0.844,33.27,7.141,47.877l66.245,143.372    c34.236-11.476,65.242-29.988,91.303-53.823l-55.34-65.725L391.33,255.905z"/>
	</g>
</g>















</svg>
