<?xml version="1.0" encoding="iso-8859-1"?>
<!-- Generator: Adobe Illustrator 19.0.0, SVG Export Plug-In . SVG Version: 6.00 Build 0)  -->
<svg version="1.1" id="Capa_1" xmlns="http://www.w3.org/2000/svg" xmlns:xlink="http://www.w3.org/1999/xlink" x="0px" y="0px"
	 viewBox="0 0 426.667 426.667" style="enable-background:new 0 0 426.667 426.667;" xml:space="preserve">
<rect x="58.381" y="76.19" style="fill:#FCD462;" width="309.888" height="321.963"/>
<rect x="168.576" y="278.485" style="fill:#64798A;" width="89.523" height="119.68"/>
<rect x="210.645" y="278.485" style="fill:#3A556A;" width="5.342" height="119.68"/>
<rect x="307.499" y="93.389" style="fill:#2D93BA;" width="31.159" height="43.145"/>
<polygon style="fill:#27A2DB;" points="307.48,136.532 307.48,93.388 338.641,93.388 "/>
<rect x="307.499" y="168.533" style="fill:#2D93BA;" width="31.159" height="43.145"/>
<polygon style="fill:#27A2DB;" points="307.48,211.664 307.48,168.52 338.641,168.52 "/>
<rect x="307.499" y="243.669" style="fill:#2D93BA;" width="31.159" height="43.145"/>
<polygon style="fill:#27A2DB;" points="307.48,286.797 307.48,243.653 338.641,243.653 "/>
<rect x="17.451" y="398.165" style="fill:#E56353;" width="396.16" height="24.93"/>
<rect x="95.654" y="93.389" style="fill:#2D93BA;" width="31.159" height="43.145"/>
<polygon style="fill:#27A2DB;" points="95.654,136.532 95.654,93.388 126.815,93.388 "/>
<rect x="95.654" y="168.533" style="fill:#2D93BA;" width="31.159" height="43.145"/>
<polygon style="fill:#27A2DB;" points="95.654,211.664 95.654,168.52 126.815,168.52 "/>
<rect x="95.654" y="243.669" style="fill:#2D93BA;" width="31.159" height="43.145"/>
<polygon style="fill:#27A2DB;" points="95.654,286.797 95.654,243.653 126.815,243.653 "/>
<rect x="168.576" y="93.389" style="fill:#2D93BA;" width="96.858" height="158.592"/>
<polygon style="fill:#27A2DB;" points="168.571,251.973 168.571,93.388 265.43,93.388 "/>
<polygon style="fill:#E56353;" points="426.667,76.192 0,76.192 58.59,3.571 368.077,3.571 "/>
<g>
</g>
<g>
</g>
<g>
</g>
<g>
</g>
<g>
</g>
<g>
</g>
<g>
</g>
<g>
</g>
<g>
</g>
<g>
</g>
<g>
</g>
<g>
</g>
<g>
</g>
<g>
</g>
<g>
</g>
</svg>
